<mxfile modified="2023-07-05T20:18:32.803Z" host="app.diagrams.net" agent="Mozilla/5.0 (Windows NT 10.0; Win64; x64) AppleWebKit/537.36 (KHTML, like Gecko) Chrome/114.0.0.0 Safari/537.36" etag="hIU1wF96hblesjz1grOK" version="21.5.1" type="device">
  <diagram id="Ht1M8jgEwFfnCIfOTk4-" name="Page-1">
    <mxGraphModel dx="1793" dy="1741" grid="1" gridSize="10" guides="1" tooltips="1" connect="1" arrows="1" fold="1" page="1" pageScale="1" pageWidth="1169" pageHeight="827" background="#F5F5F5" math="0" shadow="0">
      <root>
        <mxCell id="0" />
        <mxCell id="1" parent="0" />
        <mxCell id="JVedHGDTY4lANbzmZ5nY-45" value="Organisation AWS Cloud Platform" style="outlineConnect=0;gradientColor=none;html=1;whiteSpace=wrap;fontSize=12;fontStyle=0;shape=mxgraph.aws4.group;grIcon=mxgraph.aws4.group_aws_cloud;strokeColor=#AAB7B8;fillColor=none;verticalAlign=top;align=left;spacingLeft=30;fontColor=#AAB7B8;dashed=0;sketch=1;curveFitting=1;jiggle=2;" parent="1" vertex="1">
          <mxGeometry y="190" width="1360" height="1280" as="geometry" />
        </mxCell>
        <mxCell id="JVedHGDTY4lANbzmZ5nY-12" value="Shared/Common Services" style="swimlane;swimlaneFillColor=#ffffff;sketch=1;curveFitting=1;jiggle=2;" parent="1" vertex="1">
          <mxGeometry x="80" y="240" width="240" height="640" as="geometry" />
        </mxCell>
        <mxCell id="JVedHGDTY4lANbzmZ5nY-16" value="" style="rounded=1;whiteSpace=wrap;html=1;sketch=1;curveFitting=1;jiggle=2;" parent="JVedHGDTY4lANbzmZ5nY-12" vertex="1">
          <mxGeometry x="65" y="50" width="100" height="70" as="geometry" />
        </mxCell>
        <mxCell id="JVedHGDTY4lANbzmZ5nY-17" value="&lt;font style=&quot;font-size: 10px&quot;&gt;&lt;b&gt;Search Engine&lt;/b&gt;&lt;br&gt;(Elasticsearch)&lt;/font&gt;" style="text;html=1;strokeColor=none;fillColor=none;align=left;verticalAlign=middle;whiteSpace=wrap;rounded=0;sketch=1;curveFitting=1;jiggle=2;" parent="JVedHGDTY4lANbzmZ5nY-12" vertex="1">
          <mxGeometry x="70" y="90" width="90" height="20" as="geometry" />
        </mxCell>
        <mxCell id="JVedHGDTY4lANbzmZ5nY-29" value="" style="rounded=1;whiteSpace=wrap;html=1;sketch=1;curveFitting=1;jiggle=2;" parent="JVedHGDTY4lANbzmZ5nY-12" vertex="1">
          <mxGeometry x="65" y="130" width="100" height="70" as="geometry" />
        </mxCell>
        <mxCell id="JVedHGDTY4lANbzmZ5nY-30" value="&lt;font style=&quot;font-size: 10px&quot;&gt;&lt;b&gt;Orchestrator&lt;/b&gt;&lt;br&gt;(Jenkins)&lt;/font&gt;" style="text;html=1;strokeColor=none;fillColor=none;align=left;verticalAlign=middle;whiteSpace=wrap;rounded=0;sketch=1;curveFitting=1;jiggle=2;" parent="JVedHGDTY4lANbzmZ5nY-12" vertex="1">
          <mxGeometry x="70" y="170" width="90" height="20" as="geometry" />
        </mxCell>
        <mxCell id="JVedHGDTY4lANbzmZ5nY-31" value="" style="rounded=1;whiteSpace=wrap;html=1;sketch=1;curveFitting=1;jiggle=2;" parent="JVedHGDTY4lANbzmZ5nY-12" vertex="1">
          <mxGeometry x="65" y="210" width="100" height="70" as="geometry" />
        </mxCell>
        <mxCell id="JVedHGDTY4lANbzmZ5nY-32" value="&lt;font style=&quot;font-size: 10px&quot;&gt;&lt;b&gt;SCM&lt;/b&gt;&lt;br&gt;(GitLab)&lt;/font&gt;" style="text;html=1;strokeColor=none;fillColor=none;align=left;verticalAlign=middle;whiteSpace=wrap;rounded=0;sketch=1;curveFitting=1;jiggle=2;" parent="JVedHGDTY4lANbzmZ5nY-12" vertex="1">
          <mxGeometry x="75" y="250" width="90" height="20" as="geometry" />
        </mxCell>
        <mxCell id="YZYK8WR77NiXZbiTl2pl-4" value="" style="rounded=1;whiteSpace=wrap;html=1;sketch=1;curveFitting=1;jiggle=2;" parent="JVedHGDTY4lANbzmZ5nY-12" vertex="1">
          <mxGeometry x="65" y="290" width="100" height="70" as="geometry" />
        </mxCell>
        <mxCell id="YZYK8WR77NiXZbiTl2pl-5" value="&lt;font style=&quot;font-size: 10px&quot;&gt;&lt;b&gt;Repository&lt;/b&gt;&lt;br&gt;(Nexus)&lt;/font&gt;" style="text;html=1;strokeColor=none;fillColor=none;align=left;verticalAlign=middle;whiteSpace=wrap;rounded=0;sketch=1;curveFitting=1;jiggle=2;" parent="JVedHGDTY4lANbzmZ5nY-12" vertex="1">
          <mxGeometry x="70" y="330" width="90" height="20" as="geometry" />
        </mxCell>
        <mxCell id="lMe1I6xCQbhcHF2loqho-98" value="" style="rounded=1;whiteSpace=wrap;html=1;sketch=1;curveFitting=1;jiggle=2;" vertex="1" parent="JVedHGDTY4lANbzmZ5nY-12">
          <mxGeometry x="65" y="370" width="100" height="70" as="geometry" />
        </mxCell>
        <mxCell id="lMe1I6xCQbhcHF2loqho-99" value="&lt;span style=&quot;font-size: 10px;&quot;&gt;&lt;b&gt;Client-Side Service Discovery &lt;br&gt;&lt;/b&gt;(Eureka)&lt;/span&gt;" style="text;html=1;strokeColor=none;fillColor=none;align=left;verticalAlign=middle;whiteSpace=wrap;rounded=0;sketch=1;curveFitting=1;jiggle=2;" vertex="1" parent="JVedHGDTY4lANbzmZ5nY-12">
          <mxGeometry x="70" y="404" width="115" height="20" as="geometry" />
        </mxCell>
        <mxCell id="JVedHGDTY4lANbzmZ5nY-9" value="Presentation Layer" style="swimlane;fillColor=#ffffff;labelBackgroundColor=none;swimlaneFillColor=#ffffff;sketch=1;curveFitting=1;jiggle=2;" parent="1" vertex="1">
          <mxGeometry x="400" y="240" width="920" height="160" as="geometry" />
        </mxCell>
        <mxCell id="JVedHGDTY4lANbzmZ5nY-59" value="Full-Stack NextJS Application" style="rounded=1;whiteSpace=wrap;html=1;sketch=1;curveFitting=1;jiggle=2;" parent="JVedHGDTY4lANbzmZ5nY-9" vertex="1">
          <mxGeometry x="366.25" y="50" width="207.5" height="70" as="geometry" />
        </mxCell>
        <mxCell id="JVedHGDTY4lANbzmZ5nY-11" value="Data Storage Layer" style="swimlane;swimlaneFillColor=#ffffff;sketch=1;curveFitting=1;jiggle=2;" parent="1" vertex="1">
          <mxGeometry x="400" y="1241" width="920" height="199" as="geometry" />
        </mxCell>
        <mxCell id="JVedHGDTY4lANbzmZ5nY-53" value="PostreSQL" style="rounded=1;whiteSpace=wrap;html=1;sketch=1;curveFitting=1;jiggle=2;" parent="JVedHGDTY4lANbzmZ5nY-11" vertex="1">
          <mxGeometry x="300" y="50" width="130" height="70" as="geometry" />
        </mxCell>
        <mxCell id="lMe1I6xCQbhcHF2loqho-127" value="BLOB Images&lt;br&gt;(Cloudinary)" style="rounded=1;whiteSpace=wrap;html=1;sketch=1;curveFitting=1;jiggle=2;" vertex="1" parent="JVedHGDTY4lANbzmZ5nY-11">
          <mxGeometry x="480" y="50" width="125" height="70" as="geometry" />
        </mxCell>
        <mxCell id="lMe1I6xCQbhcHF2loqho-120" value="" style="rounded=1;orthogonalLoop=1;jettySize=auto;html=1;fontFamily=Helvetica;fontSize=11;fontColor=default;startArrow=classic;startFill=1;dashed=1;sketch=1;curveFitting=1;jiggle=2;" edge="1" parent="1" source="JVedHGDTY4lANbzmZ5nY-18" target="JVedHGDTY4lANbzmZ5nY-59">
          <mxGeometry relative="1" as="geometry" />
        </mxCell>
        <mxCell id="JVedHGDTY4lANbzmZ5nY-18" value="Mobile Apps/Devices" style="outlineConnect=0;gradientColor=none;fontColor=#545B64;strokeColor=none;fillColor=#879196;dashed=0;verticalLabelPosition=top;verticalAlign=bottom;align=center;html=1;fontSize=12;fontStyle=0;aspect=fixed;shape=mxgraph.aws4.illustration_devices;pointerEvents=1;labelPosition=center;sketch=1;curveFitting=1;jiggle=2;" parent="1" vertex="1">
          <mxGeometry x="890" y="110" width="86.01" height="62.79" as="geometry" />
        </mxCell>
        <mxCell id="JVedHGDTY4lANbzmZ5nY-19" value="Third-Party Developers" style="outlineConnect=0;gradientColor=none;fontColor=#545B64;strokeColor=none;fillColor=#879196;dashed=0;verticalLabelPosition=top;verticalAlign=bottom;align=center;html=1;fontSize=12;fontStyle=0;aspect=fixed;shape=mxgraph.aws4.illustration_users;pointerEvents=1;labelPosition=center;sketch=1;curveFitting=1;jiggle=2;" parent="1" vertex="1">
          <mxGeometry x="903" y="-10" width="60" height="60" as="geometry" />
        </mxCell>
        <mxCell id="JVedHGDTY4lANbzmZ5nY-23" value="Live Users" style="outlineConnect=0;gradientColor=none;fontColor=#545B64;strokeColor=none;fillColor=#879196;dashed=0;verticalLabelPosition=top;verticalAlign=bottom;align=center;html=1;fontSize=12;fontStyle=0;aspect=fixed;shape=mxgraph.aws4.illustration_users;pointerEvents=1;labelPosition=center;sketch=1;curveFitting=1;jiggle=2;" parent="1" vertex="1">
          <mxGeometry x="780" y="-10" width="60" height="60" as="geometry" />
        </mxCell>
        <mxCell id="JVedHGDTY4lANbzmZ5nY-24" value="Web Browser" style="outlineConnect=0;gradientColor=none;fontColor=#545B64;strokeColor=none;fillColor=#879196;dashed=0;verticalLabelPosition=top;verticalAlign=bottom;align=center;html=1;fontSize=12;fontStyle=0;aspect=fixed;shape=mxgraph.aws4.illustration_desktop;pointerEvents=1;labelBackgroundColor=none;labelBorderColor=none;labelPosition=center;sketch=1;curveFitting=1;jiggle=2;" parent="1" vertex="1">
          <mxGeometry x="790" y="110" width="69" height="62.79" as="geometry" />
        </mxCell>
        <mxCell id="ZGKyEDnmZlkxXqbfv9jT-51" value="" style="endArrow=classic;html=1;startArrow=classic;startFill=1;dashed=1;sketch=1;curveFitting=1;jiggle=2;" parent="1" source="JVedHGDTY4lANbzmZ5nY-24" target="JVedHGDTY4lANbzmZ5nY-59" edge="1">
          <mxGeometry width="50" height="50" relative="1" as="geometry">
            <mxPoint x="810" y="240" as="sourcePoint" />
            <mxPoint x="970" y="600" as="targetPoint" />
          </mxGeometry>
        </mxCell>
        <mxCell id="lMe1I6xCQbhcHF2loqho-21" value="SPRING REST API" style="outlineConnect=0;gradientColor=#F2F2F2;html=1;whiteSpace=wrap;fontSize=12;fontStyle=1;shape=mxgraph.aws4.group;grIcon=mxgraph.aws4.group_aws_cloud;strokeColor=#BFCDCF;fillColor=default;verticalAlign=top;align=left;spacingLeft=30;fontColor=#020303;dashed=0;container=0;sketch=1;curveFitting=1;jiggle=2;" vertex="1" parent="1">
          <mxGeometry x="360" y="440" width="1000" height="760" as="geometry">
            <mxRectangle x="360" y="400" width="180" height="30" as="alternateBounds" />
          </mxGeometry>
        </mxCell>
        <mxCell id="lMe1I6xCQbhcHF2loqho-11" value="Logic Layer" style="swimlane;swimlaneFillColor=#ffffff;sketch=1;curveFitting=1;jiggle=2;" vertex="1" parent="1">
          <mxGeometry x="400" y="480" width="920" height="400" as="geometry">
            <mxRectangle x="410" y="440" width="110" height="30" as="alternateBounds" />
          </mxGeometry>
        </mxCell>
        <mxCell id="lMe1I6xCQbhcHF2loqho-36" value="Auth Controller&lt;br&gt;(Only Controller That Allows Cross Origin)" style="rounded=1;whiteSpace=wrap;html=1;sketch=1;curveFitting=1;jiggle=2;" vertex="1" parent="lMe1I6xCQbhcHF2loqho-11">
          <mxGeometry x="252" y="39.999999999999986" width="140" height="68.91999999999999" as="geometry" />
        </mxCell>
        <mxCell id="lMe1I6xCQbhcHF2loqho-66" value="" style="edgeStyle=orthogonalEdgeStyle;rounded=0;orthogonalLoop=1;jettySize=auto;html=1;fontFamily=Helvetica;fontSize=12;fontColor=default;sketch=1;curveFitting=1;jiggle=2;" edge="1" parent="lMe1I6xCQbhcHF2loqho-11" source="lMe1I6xCQbhcHF2loqho-41" target="lMe1I6xCQbhcHF2loqho-42">
          <mxGeometry relative="1" as="geometry" />
        </mxCell>
        <mxCell id="lMe1I6xCQbhcHF2loqho-41" value="JWT Filter&lt;br&gt;(Higher Predence)&lt;br&gt;" style="rounded=1;whiteSpace=wrap;html=1;sketch=1;curveFitting=1;jiggle=2;" vertex="1" parent="lMe1I6xCQbhcHF2loqho-11">
          <mxGeometry x="410" y="40" width="120" height="68.92" as="geometry" />
        </mxCell>
        <mxCell id="lMe1I6xCQbhcHF2loqho-67" value="" style="edgeStyle=orthogonalEdgeStyle;rounded=0;orthogonalLoop=1;jettySize=auto;html=1;fontFamily=Helvetica;fontSize=12;fontColor=default;sketch=1;curveFitting=1;jiggle=2;" edge="1" parent="lMe1I6xCQbhcHF2loqho-11" source="lMe1I6xCQbhcHF2loqho-42" target="lMe1I6xCQbhcHF2loqho-53">
          <mxGeometry relative="1" as="geometry" />
        </mxCell>
        <mxCell id="lMe1I6xCQbhcHF2loqho-69" style="edgeStyle=orthogonalEdgeStyle;rounded=0;orthogonalLoop=1;jettySize=auto;html=1;fontFamily=Helvetica;fontSize=12;fontColor=default;sketch=1;curveFitting=1;jiggle=2;" edge="1" parent="lMe1I6xCQbhcHF2loqho-11" source="lMe1I6xCQbhcHF2loqho-42" target="lMe1I6xCQbhcHF2loqho-54">
          <mxGeometry relative="1" as="geometry">
            <Array as="points">
              <mxPoint x="470" y="230" />
              <mxPoint x="335" y="230" />
            </Array>
          </mxGeometry>
        </mxCell>
        <mxCell id="lMe1I6xCQbhcHF2loqho-72" style="edgeStyle=orthogonalEdgeStyle;rounded=0;orthogonalLoop=1;jettySize=auto;html=1;entryX=0.5;entryY=0;entryDx=0;entryDy=0;fontFamily=Helvetica;fontSize=12;fontColor=default;sketch=1;curveFitting=1;jiggle=2;" edge="1" parent="lMe1I6xCQbhcHF2loqho-11" source="lMe1I6xCQbhcHF2loqho-42" target="lMe1I6xCQbhcHF2loqho-52">
          <mxGeometry relative="1" as="geometry">
            <Array as="points">
              <mxPoint x="470" y="230" />
              <mxPoint x="605" y="230" />
            </Array>
          </mxGeometry>
        </mxCell>
        <mxCell id="lMe1I6xCQbhcHF2loqho-74" style="edgeStyle=orthogonalEdgeStyle;rounded=0;orthogonalLoop=1;jettySize=auto;html=1;fontFamily=Helvetica;fontSize=12;fontColor=default;sketch=1;curveFitting=1;jiggle=2;" edge="1" parent="lMe1I6xCQbhcHF2loqho-11" source="lMe1I6xCQbhcHF2loqho-42" target="lMe1I6xCQbhcHF2loqho-43">
          <mxGeometry relative="1" as="geometry">
            <Array as="points">
              <mxPoint x="470" y="230" />
              <mxPoint x="790" y="230" />
            </Array>
          </mxGeometry>
        </mxCell>
        <mxCell id="lMe1I6xCQbhcHF2loqho-42" value="Request Caching Filter" style="rounded=1;whiteSpace=wrap;html=1;sketch=1;curveFitting=1;jiggle=2;" vertex="1" parent="lMe1I6xCQbhcHF2loqho-11">
          <mxGeometry x="410" y="130" width="120" height="68.92" as="geometry" />
        </mxCell>
        <mxCell id="lMe1I6xCQbhcHF2loqho-43" value="JSON Argument Resolver" style="rounded=1;whiteSpace=wrap;html=1;sketch=1;curveFitting=1;jiggle=2;" vertex="1" parent="lMe1I6xCQbhcHF2loqho-11">
          <mxGeometry x="730.0000000000001" y="290" width="120" height="68.91999999999999" as="geometry" />
        </mxCell>
        <mxCell id="lMe1I6xCQbhcHF2loqho-52" value="Conversation Controller" style="rounded=1;whiteSpace=wrap;html=1;sketch=1;curveFitting=1;jiggle=2;" vertex="1" parent="lMe1I6xCQbhcHF2loqho-11">
          <mxGeometry x="545" y="290" width="120" height="68.92" as="geometry" />
        </mxCell>
        <mxCell id="lMe1I6xCQbhcHF2loqho-53" value="Message Controller" style="rounded=1;whiteSpace=wrap;html=1;sketch=1;curveFitting=1;jiggle=2;" vertex="1" parent="lMe1I6xCQbhcHF2loqho-11">
          <mxGeometry x="410" y="290" width="120" height="68.92" as="geometry" />
        </mxCell>
        <mxCell id="lMe1I6xCQbhcHF2loqho-54" value="User Controller" style="rounded=1;whiteSpace=wrap;html=1;sketch=1;curveFitting=1;jiggle=2;" vertex="1" parent="lMe1I6xCQbhcHF2loqho-11">
          <mxGeometry x="275" y="290" width="120" height="68.92" as="geometry" />
        </mxCell>
        <mxCell id="lMe1I6xCQbhcHF2loqho-64" value="" style="edgeStyle=orthogonalEdgeStyle;rounded=0;orthogonalLoop=1;jettySize=auto;html=1;fontFamily=Helvetica;fontSize=12;fontColor=default;sketch=1;curveFitting=1;jiggle=2;" edge="1" parent="lMe1I6xCQbhcHF2loqho-11" source="lMe1I6xCQbhcHF2loqho-63" target="lMe1I6xCQbhcHF2loqho-42">
          <mxGeometry relative="1" as="geometry" />
        </mxCell>
        <mxCell id="lMe1I6xCQbhcHF2loqho-63" value="CachedHttpServletRequest" style="rounded=1;align=center;verticalAlign=middle;horizontal=1;html=1;whiteSpace=wrap;sketch=1;curveFitting=1;jiggle=2;" vertex="1" parent="lMe1I6xCQbhcHF2loqho-11">
          <mxGeometry x="570" y="130" width="160" height="68.92" as="geometry" />
        </mxCell>
        <mxCell id="lMe1I6xCQbhcHF2loqho-77" value="Utilities, Helpers and Mappers" style="swimlane;swimlaneFillColor=#ffffff;sketch=1;curveFitting=1;jiggle=2;" vertex="1" parent="lMe1I6xCQbhcHF2loqho-11">
          <mxGeometry x="15" y="40" width="195" height="290" as="geometry">
            <mxRectangle x="410" y="440" width="110" height="30" as="alternateBounds" />
          </mxGeometry>
        </mxCell>
        <mxCell id="lMe1I6xCQbhcHF2loqho-81" value="Mapper&lt;br&gt;(Mapstruct&lt;span style=&quot;background-color: initial;&quot;&gt;)&lt;/span&gt;" style="rounded=1;whiteSpace=wrap;html=1;sketch=1;curveFitting=1;jiggle=2;" vertex="1" parent="lMe1I6xCQbhcHF2loqho-77">
          <mxGeometry x="35.860000000000014" y="47.85000000000002" width="120" height="68.92" as="geometry" />
        </mxCell>
        <mxCell id="lMe1I6xCQbhcHF2loqho-82" value="ConversationUtils" style="rounded=1;whiteSpace=wrap;html=1;sketch=1;curveFitting=1;jiggle=2;" vertex="1" parent="lMe1I6xCQbhcHF2loqho-77">
          <mxGeometry x="34.59000000000003" y="125.53999999999996" width="120" height="68.92" as="geometry" />
        </mxCell>
        <mxCell id="lMe1I6xCQbhcHF2loqho-83" value="DateUtils" style="rounded=1;whiteSpace=wrap;html=1;sketch=1;curveFitting=1;jiggle=2;" vertex="1" parent="lMe1I6xCQbhcHF2loqho-77">
          <mxGeometry x="35.860000000000014" y="210" width="120" height="68.92" as="geometry" />
        </mxCell>
        <mxCell id="lMe1I6xCQbhcHF2loqho-51" value="" style="group;sketch=1;curveFitting=1;jiggle=2;" vertex="1" connectable="0" parent="1">
          <mxGeometry x="400" y="920" width="920" height="250" as="geometry" />
        </mxCell>
        <mxCell id="ZGKyEDnmZlkxXqbfv9jT-17" value="Data Layer" style="swimlane;swimlaneFillColor=#ffffff;container=0;sketch=1;curveFitting=1;jiggle=2;" parent="lMe1I6xCQbhcHF2loqho-51" vertex="1">
          <mxGeometry width="920" height="250" as="geometry" />
        </mxCell>
        <mxCell id="lMe1I6xCQbhcHF2loqho-75" value="JWT Token Service" style="rounded=1;whiteSpace=wrap;html=1;sketch=1;curveFitting=1;jiggle=2;" vertex="1" parent="ZGKyEDnmZlkxXqbfv9jT-17">
          <mxGeometry x="780" y="160" width="120" height="68.92" as="geometry" />
        </mxCell>
        <mxCell id="lMe1I6xCQbhcHF2loqho-84" value="Message Service" style="rounded=1;whiteSpace=wrap;html=1;sketch=1;curveFitting=1;jiggle=2;" vertex="1" parent="ZGKyEDnmZlkxXqbfv9jT-17">
          <mxGeometry x="410" y="40" width="120" height="68.92" as="geometry" />
        </mxCell>
        <mxCell id="lMe1I6xCQbhcHF2loqho-85" value="User Service" style="rounded=1;whiteSpace=wrap;html=1;sketch=1;curveFitting=1;jiggle=2;" vertex="1" parent="ZGKyEDnmZlkxXqbfv9jT-17">
          <mxGeometry x="275" y="40" width="120" height="68.92" as="geometry" />
        </mxCell>
        <mxCell id="lMe1I6xCQbhcHF2loqho-86" value="Conversation Service" style="rounded=1;whiteSpace=wrap;html=1;sketch=1;curveFitting=1;jiggle=2;" vertex="1" parent="ZGKyEDnmZlkxXqbfv9jT-17">
          <mxGeometry x="545" y="40" width="120" height="68.92" as="geometry" />
        </mxCell>
        <mxCell id="lMe1I6xCQbhcHF2loqho-111" style="rounded=0;orthogonalLoop=1;jettySize=auto;html=1;entryX=0.75;entryY=1;entryDx=0;entryDy=0;fontFamily=Helvetica;fontSize=12;fontColor=default;dashed=1;elbow=vertical;edgeStyle=orthogonalEdgeStyle;startArrow=classic;startFill=1;sketch=1;curveFitting=1;jiggle=2;" edge="1" parent="ZGKyEDnmZlkxXqbfv9jT-17" source="lMe1I6xCQbhcHF2loqho-107" target="lMe1I6xCQbhcHF2loqho-85">
          <mxGeometry relative="1" as="geometry" />
        </mxCell>
        <mxCell id="lMe1I6xCQbhcHF2loqho-116" style="edgeStyle=orthogonalEdgeStyle;rounded=0;orthogonalLoop=1;jettySize=auto;html=1;entryX=0.75;entryY=1;entryDx=0;entryDy=0;fontFamily=Helvetica;fontSize=12;fontColor=default;dashed=1;startArrow=classic;startFill=1;sketch=1;curveFitting=1;jiggle=2;" edge="1" parent="ZGKyEDnmZlkxXqbfv9jT-17" source="lMe1I6xCQbhcHF2loqho-107" target="lMe1I6xCQbhcHF2loqho-84">
          <mxGeometry relative="1" as="geometry" />
        </mxCell>
        <mxCell id="lMe1I6xCQbhcHF2loqho-117" style="edgeStyle=orthogonalEdgeStyle;rounded=0;orthogonalLoop=1;jettySize=auto;html=1;entryX=0.791;entryY=0.996;entryDx=0;entryDy=0;entryPerimeter=0;fontFamily=Helvetica;fontSize=12;fontColor=default;dashed=1;startArrow=classic;startFill=1;sketch=1;curveFitting=1;jiggle=2;" edge="1" parent="ZGKyEDnmZlkxXqbfv9jT-17" source="lMe1I6xCQbhcHF2loqho-107" target="lMe1I6xCQbhcHF2loqho-86">
          <mxGeometry relative="1" as="geometry" />
        </mxCell>
        <mxCell id="lMe1I6xCQbhcHF2loqho-107" value="Caffeine Cache" style="rounded=1;whiteSpace=wrap;html=1;sketch=1;curveFitting=1;jiggle=2;" vertex="1" parent="ZGKyEDnmZlkxXqbfv9jT-17">
          <mxGeometry x="65" y="100.00000000000007" width="120" height="68.92" as="geometry" />
        </mxCell>
        <mxCell id="lMe1I6xCQbhcHF2loqho-89" style="edgeStyle=orthogonalEdgeStyle;rounded=0;orthogonalLoop=1;jettySize=auto;html=1;entryX=0.5;entryY=0;entryDx=0;entryDy=0;fontFamily=Helvetica;fontSize=12;fontColor=default;sketch=1;curveFitting=1;jiggle=2;" edge="1" parent="1" source="lMe1I6xCQbhcHF2loqho-53" target="lMe1I6xCQbhcHF2loqho-84">
          <mxGeometry relative="1" as="geometry" />
        </mxCell>
        <mxCell id="lMe1I6xCQbhcHF2loqho-88" style="edgeStyle=orthogonalEdgeStyle;rounded=0;orthogonalLoop=1;jettySize=auto;html=1;fontFamily=Helvetica;fontSize=12;fontColor=default;sketch=1;curveFitting=1;jiggle=2;" edge="1" parent="1" source="lMe1I6xCQbhcHF2loqho-54" target="lMe1I6xCQbhcHF2loqho-85">
          <mxGeometry relative="1" as="geometry" />
        </mxCell>
        <mxCell id="lMe1I6xCQbhcHF2loqho-90" style="edgeStyle=orthogonalEdgeStyle;rounded=0;orthogonalLoop=1;jettySize=auto;html=1;entryX=0.5;entryY=0;entryDx=0;entryDy=0;fontFamily=Helvetica;fontSize=12;fontColor=default;sketch=1;curveFitting=1;jiggle=2;" edge="1" parent="1" source="lMe1I6xCQbhcHF2loqho-52" target="lMe1I6xCQbhcHF2loqho-86">
          <mxGeometry relative="1" as="geometry" />
        </mxCell>
        <mxCell id="lMe1I6xCQbhcHF2loqho-91" style="edgeStyle=orthogonalEdgeStyle;rounded=0;orthogonalLoop=1;jettySize=auto;html=1;entryX=1;entryY=0.5;entryDx=0;entryDy=0;fontFamily=Helvetica;fontSize=12;fontColor=default;sketch=1;curveFitting=1;jiggle=2;" edge="1" parent="1" source="lMe1I6xCQbhcHF2loqho-75" target="lMe1I6xCQbhcHF2loqho-41">
          <mxGeometry relative="1" as="geometry">
            <Array as="points">
              <mxPoint x="1270" y="555" />
            </Array>
          </mxGeometry>
        </mxCell>
        <mxCell id="lMe1I6xCQbhcHF2loqho-133" style="edgeStyle=orthogonalEdgeStyle;rounded=0;orthogonalLoop=1;jettySize=auto;html=1;entryX=0.5;entryY=0;entryDx=0;entryDy=0;fontFamily=Helvetica;fontSize=12;fontColor=default;sketch=1;curveFitting=1;jiggle=2;" edge="1" parent="1" source="lMe1I6xCQbhcHF2loqho-92" target="JVedHGDTY4lANbzmZ5nY-53">
          <mxGeometry relative="1" as="geometry">
            <Array as="points">
              <mxPoint x="870" y="1230" />
              <mxPoint x="765" y="1230" />
            </Array>
          </mxGeometry>
        </mxCell>
        <mxCell id="lMe1I6xCQbhcHF2loqho-136" style="edgeStyle=orthogonalEdgeStyle;rounded=0;orthogonalLoop=1;jettySize=auto;html=1;entryX=0.5;entryY=0;entryDx=0;entryDy=0;fontFamily=Helvetica;fontSize=12;fontColor=default;sketch=1;curveFitting=1;jiggle=2;" edge="1" parent="1" source="lMe1I6xCQbhcHF2loqho-92" target="lMe1I6xCQbhcHF2loqho-127">
          <mxGeometry relative="1" as="geometry">
            <Array as="points">
              <mxPoint x="870" y="1230" />
              <mxPoint x="942" y="1230" />
            </Array>
          </mxGeometry>
        </mxCell>
        <mxCell id="lMe1I6xCQbhcHF2loqho-92" value="Message Repository Interface" style="rounded=1;whiteSpace=wrap;html=1;sketch=1;curveFitting=1;jiggle=2;" vertex="1" parent="1">
          <mxGeometry x="810" y="1081" width="120" height="68.92" as="geometry" />
        </mxCell>
        <mxCell id="lMe1I6xCQbhcHF2loqho-132" style="edgeStyle=orthogonalEdgeStyle;rounded=0;orthogonalLoop=1;jettySize=auto;html=1;entryX=0.5;entryY=0;entryDx=0;entryDy=0;fontFamily=Helvetica;fontSize=12;fontColor=default;sketch=1;curveFitting=1;jiggle=2;" edge="1" parent="1" source="lMe1I6xCQbhcHF2loqho-93" target="JVedHGDTY4lANbzmZ5nY-53">
          <mxGeometry relative="1" as="geometry">
            <Array as="points">
              <mxPoint x="735" y="1230" />
              <mxPoint x="765" y="1230" />
            </Array>
          </mxGeometry>
        </mxCell>
        <mxCell id="lMe1I6xCQbhcHF2loqho-135" style="edgeStyle=orthogonalEdgeStyle;rounded=0;orthogonalLoop=1;jettySize=auto;html=1;entryX=0.5;entryY=0;entryDx=0;entryDy=0;fontFamily=Helvetica;fontSize=12;fontColor=default;sketch=1;curveFitting=1;jiggle=2;" edge="1" parent="1" source="lMe1I6xCQbhcHF2loqho-93" target="lMe1I6xCQbhcHF2loqho-127">
          <mxGeometry relative="1" as="geometry">
            <Array as="points">
              <mxPoint x="735" y="1230" />
              <mxPoint x="942" y="1230" />
            </Array>
          </mxGeometry>
        </mxCell>
        <mxCell id="lMe1I6xCQbhcHF2loqho-93" value="User Repository Interface" style="rounded=1;whiteSpace=wrap;html=1;sketch=1;curveFitting=1;jiggle=2;" vertex="1" parent="1">
          <mxGeometry x="675" y="1081" width="120" height="68.92" as="geometry" />
        </mxCell>
        <mxCell id="lMe1I6xCQbhcHF2loqho-134" style="edgeStyle=orthogonalEdgeStyle;rounded=0;orthogonalLoop=1;jettySize=auto;html=1;entryX=0.5;entryY=0;entryDx=0;entryDy=0;fontFamily=Helvetica;fontSize=12;fontColor=default;sketch=1;curveFitting=1;jiggle=2;" edge="1" parent="1" source="lMe1I6xCQbhcHF2loqho-94" target="JVedHGDTY4lANbzmZ5nY-53">
          <mxGeometry relative="1" as="geometry">
            <Array as="points">
              <mxPoint x="1005" y="1230" />
              <mxPoint x="765" y="1230" />
            </Array>
          </mxGeometry>
        </mxCell>
        <mxCell id="lMe1I6xCQbhcHF2loqho-137" style="edgeStyle=orthogonalEdgeStyle;rounded=0;orthogonalLoop=1;jettySize=auto;html=1;entryX=0.5;entryY=0;entryDx=0;entryDy=0;fontFamily=Helvetica;fontSize=12;fontColor=default;sketch=1;curveFitting=1;jiggle=2;" edge="1" parent="1" source="lMe1I6xCQbhcHF2loqho-94" target="lMe1I6xCQbhcHF2loqho-127">
          <mxGeometry relative="1" as="geometry">
            <Array as="points">
              <mxPoint x="1005" y="1230" />
              <mxPoint x="942" y="1230" />
            </Array>
          </mxGeometry>
        </mxCell>
        <mxCell id="lMe1I6xCQbhcHF2loqho-94" value="Conversation Repository Interface" style="rounded=1;whiteSpace=wrap;html=1;sketch=1;curveFitting=1;jiggle=2;" vertex="1" parent="1">
          <mxGeometry x="945" y="1081" width="120" height="68.92" as="geometry" />
        </mxCell>
        <mxCell id="lMe1I6xCQbhcHF2loqho-95" value="" style="edgeStyle=orthogonalEdgeStyle;rounded=0;orthogonalLoop=1;jettySize=auto;html=1;fontFamily=Helvetica;fontSize=12;fontColor=default;sketch=1;curveFitting=1;jiggle=2;" edge="1" parent="1" source="lMe1I6xCQbhcHF2loqho-85" target="lMe1I6xCQbhcHF2loqho-93">
          <mxGeometry relative="1" as="geometry" />
        </mxCell>
        <mxCell id="lMe1I6xCQbhcHF2loqho-96" value="" style="edgeStyle=orthogonalEdgeStyle;rounded=0;orthogonalLoop=1;jettySize=auto;html=1;fontFamily=Helvetica;fontSize=12;fontColor=default;sketch=1;curveFitting=1;jiggle=2;" edge="1" parent="1" source="lMe1I6xCQbhcHF2loqho-84" target="lMe1I6xCQbhcHF2loqho-92">
          <mxGeometry relative="1" as="geometry" />
        </mxCell>
        <mxCell id="lMe1I6xCQbhcHF2loqho-97" value="" style="edgeStyle=orthogonalEdgeStyle;rounded=0;orthogonalLoop=1;jettySize=auto;html=1;fontFamily=Helvetica;fontSize=12;fontColor=default;sketch=1;curveFitting=1;jiggle=2;" edge="1" parent="1" source="lMe1I6xCQbhcHF2loqho-86" target="lMe1I6xCQbhcHF2loqho-94">
          <mxGeometry relative="1" as="geometry" />
        </mxCell>
        <mxCell id="lMe1I6xCQbhcHF2loqho-119" style="edgeStyle=orthogonalEdgeStyle;rounded=0;orthogonalLoop=1;jettySize=auto;html=1;entryX=0.5;entryY=0;entryDx=0;entryDy=0;fontFamily=Helvetica;fontSize=12;fontColor=default;sketch=1;curveFitting=1;jiggle=2;" edge="1" parent="1" source="JVedHGDTY4lANbzmZ5nY-59" target="lMe1I6xCQbhcHF2loqho-41">
          <mxGeometry relative="1" as="geometry" />
        </mxCell>
        <mxCell id="ZGKyEDnmZlkxXqbfv9jT-89" value="External Platforms" style="outlineConnect=0;gradientColor=none;html=1;whiteSpace=wrap;fontSize=12;fontStyle=0;shape=mxgraph.aws4.group;grIcon=mxgraph.aws4.group_aws_cloud;strokeColor=#AAB7B8;fillColor=none;verticalAlign=top;align=left;spacingLeft=30;fontColor=#AAB7B8;dashed=0;labelBackgroundColor=none;sketch=1;curveFitting=1;jiggle=2;" parent="1" vertex="1">
          <mxGeometry x="1440" y="200" width="260" height="720" as="geometry" />
        </mxCell>
        <mxCell id="JVedHGDTY4lANbzmZ5nY-13" value="Other Services/Partners" style="swimlane;swimlaneFillColor=#ffffff;sketch=1;curveFitting=1;jiggle=2;" parent="1" vertex="1">
          <mxGeometry x="1460" y="250" width="220" height="630" as="geometry" />
        </mxCell>
        <mxCell id="lMe1I6xCQbhcHF2loqho-121" value="" style="group;sketch=1;curveFitting=1;jiggle=2;" vertex="1" connectable="0" parent="JVedHGDTY4lANbzmZ5nY-13">
          <mxGeometry x="60" y="59.80653846153848" width="100" height="86.08653846153845" as="geometry" />
        </mxCell>
        <mxCell id="ZGKyEDnmZlkxXqbfv9jT-44" value="Image Storage&lt;br&gt;(Cloudinary)" style="rounded=1;whiteSpace=wrap;html=1;sketch=1;curveFitting=1;jiggle=2;" parent="lMe1I6xCQbhcHF2loqho-121" vertex="1">
          <mxGeometry width="100" height="86.08653846153847" as="geometry" />
        </mxCell>
        <mxCell id="lMe1I6xCQbhcHF2loqho-138" style="edgeStyle=orthogonalEdgeStyle;rounded=0;orthogonalLoop=1;jettySize=auto;html=1;fontFamily=Helvetica;fontSize=12;fontColor=default;sketch=1;curveFitting=1;jiggle=2;" edge="1" parent="1" source="lMe1I6xCQbhcHF2loqho-127" target="ZGKyEDnmZlkxXqbfv9jT-89">
          <mxGeometry relative="1" as="geometry" />
        </mxCell>
      </root>
    </mxGraphModel>
  </diagram>
</mxfile>
